<svg xmlns="http://www.w3.org/2000/svg" xmlns:xlink="http://www.w3.org/1999/xlink" viewBox="0 0 95.481 95.481" height="95.481" width="95.481" data-background-color="#ffffff" preserveAspectRatio="xMidYMid meet" id="tight-bounds"><g><svg viewBox="0 0 95.481 95.481" height="95.481" width="95.481"><g><svg viewBox="0 0 95.481 95.481" height="95.481" width="95.481"><g id="textblocktransform"><svg viewBox="0 0 95.481 95.481" height="95.481" width="95.481" id="textblock"><g><svg viewBox="0 0 95.481 95.481" height="95.481" width="95.481"><g><svg viewBox="0 0 95.481 95.481" height="95.481" width="95.481"><g><svg viewBox="0 0 95.481 95.481" height="95.481" width="95.481"><g transform="matrix(1,0,0,1,25.235412475175753,25.23541456271588)"><svg viewBox="0 0 45.01017504964849 45.01017087456823" height="45.01017087456823" width="45.01017504964849"><g><svg xmlns="http://www.w3.org/2000/svg" xml:space="preserve" viewBox="9.874999046325684 8.871000289916992 82.25000762939453 82.25" x="0" y="0" height="45.01017087456823" width="45.01017504964849" class="icon-b-0" data-fill-palette-color="accent" id="b-0"><path d="M92.125 19.833v60.322c0 6.059-4.907 10.966-10.967 10.966H20.842c-6.059 0-10.967-4.907-10.967-10.966V19.833c0-6.06 4.908-10.962 10.967-10.962h60.316c6.06 0.001 10.967 4.902 10.967 10.962m-5.484 60.322V19.833a5.487 5.487 0 0 0-5.482-5.483H20.842a5.483 5.483 0 0 0-5.483 5.483v60.322a5.49 5.49 0 0 0 5.483 5.483h60.316a5.495 5.495 0 0 0 5.483-5.483" fill="#ceb700" data-fill-palette-color="accent"/><path d="M81.158 71.924v5.483a2.75 2.75 0 0 1-2.742 2.748h-5.483a2.747 2.747 0 0 1-2.741-2.748v-5.483a2.737 2.737 0 0 1 2.741-2.736h5.483a2.74 2.74 0 0 1 2.742 2.736M81.158 55.474v5.483a2.745 2.745 0 0 1-2.742 2.748h-5.483a2.744 2.744 0 0 1-2.741-2.748v-5.483a2.737 2.737 0 0 1 2.741-2.736h5.483a2.737 2.737 0 0 1 2.742 2.736M81.158 39.03v5.482a2.743 2.743 0 0 1-2.742 2.742h-5.483a2.74 2.74 0 0 1-2.741-2.742V39.03a2.747 2.747 0 0 1 2.741-2.747h5.483a2.747 2.747 0 0 1 2.742 2.747M81.158 22.581v5.484a2.74 2.74 0 0 1-2.742 2.735h-5.483a2.737 2.737 0 0 1-2.741-2.735v-5.484a2.747 2.747 0 0 1 2.741-2.747h5.483a2.745 2.745 0 0 1 2.742 2.747M64.708 71.924v5.483a2.75 2.75 0 0 1-2.743 2.748h-5.481a2.747 2.747 0 0 1-2.741-2.748v-5.483a2.737 2.737 0 0 1 2.741-2.736h5.481a2.74 2.74 0 0 1 2.743 2.736M64.708 55.474v5.483a2.745 2.745 0 0 1-2.743 2.748h-5.481a2.744 2.744 0 0 1-2.741-2.748v-5.483a2.737 2.737 0 0 1 2.741-2.736h5.481a2.74 2.74 0 0 1 2.743 2.736M64.708 39.03v5.482a2.743 2.743 0 0 1-2.743 2.742h-5.481a2.74 2.74 0 0 1-2.741-2.742V39.03a2.747 2.747 0 0 1 2.741-2.747h5.481a2.75 2.75 0 0 1 2.743 2.747M64.708 22.581v5.484a2.74 2.74 0 0 1-2.743 2.735h-5.481a2.737 2.737 0 0 1-2.741-2.735v-5.484a2.747 2.747 0 0 1 2.741-2.747h5.481a2.746 2.746 0 0 1 2.743 2.747M48.258 71.924v5.483a2.75 2.75 0 0 1-2.742 2.748h-5.484a2.747 2.747 0 0 1-2.74-2.748v-5.483a2.737 2.737 0 0 1 2.74-2.736h5.484a2.74 2.74 0 0 1 2.742 2.736M48.258 55.474v5.483a2.744 2.744 0 0 1-2.742 2.748h-5.484a2.743 2.743 0 0 1-2.74-2.748v-5.483a2.737 2.737 0 0 1 2.74-2.736h5.484a2.737 2.737 0 0 1 2.742 2.736M48.258 39.03v5.482a2.74 2.74 0 0 1-2.742 2.742h-5.484a2.74 2.74 0 0 1-2.74-2.742V39.03a2.746 2.746 0 0 1 2.74-2.747h5.484a2.747 2.747 0 0 1 2.742 2.747M48.258 22.581v5.484a2.74 2.74 0 0 1-2.742 2.735h-5.484a2.737 2.737 0 0 1-2.74-2.735v-5.484a2.746 2.746 0 0 1 2.74-2.747h5.484a2.745 2.745 0 0 1 2.742 2.747M31.81 71.924v5.483a2.75 2.75 0 0 1-2.744 2.748h-5.482a2.747 2.747 0 0 1-2.741-2.748v-5.483a2.74 2.74 0 0 1 2.741-2.736h5.482a2.74 2.74 0 0 1 2.744 2.736M31.81 55.474v5.483a2.746 2.746 0 0 1-2.744 2.748h-5.482a2.744 2.744 0 0 1-2.741-2.748v-5.483a2.74 2.74 0 0 1 2.741-2.736h5.482a2.74 2.74 0 0 1 2.744 2.736M31.81 39.03v5.482a2.744 2.744 0 0 1-2.744 2.742h-5.482a2.743 2.743 0 0 1-2.741-2.742V39.03a2.747 2.747 0 0 1 2.741-2.747h5.482a2.75 2.75 0 0 1 2.744 2.747M31.81 22.581v5.484a2.74 2.74 0 0 1-2.744 2.735h-5.482a2.74 2.74 0 0 1-2.741-2.735v-5.484a2.747 2.747 0 0 1 2.741-2.747h5.482a2.75 2.75 0 0 1 2.744 2.747" fill="#ceb700" data-fill-palette-color="accent"/></svg></g></svg></g><g id="text-0"><path d="M6.86 37.435l-5.713-6.457 0.344-0.991 7.796 1.144-0.461 1.328-2.083-0.368-0.852 2.453 1.698 1.754zM5.792 31.912c-0.658-0.113-1.25-0.229-1.776-0.348-0.527-0.118-0.947-0.21-1.262-0.276v0c0.263 0.278 0.6 0.632 1.01 1.062 0.418 0.432 0.877 0.908 1.38 1.428v0z" fill="#ceb700" data-fill-palette-color="accent"/><path d="M14.255 20.612l0.962 0.344c-0.02 0.221-0.066 0.432-0.138 0.632-0.072 0.2-0.192 0.415-0.362 0.644v0c-0.278 0.377-0.566 0.721-0.864 1.033-0.298 0.312-0.59 0.662-0.876 1.049v0l-0.394 0.533-0.655-0.484-1.244-4.932c-0.242 0.362-0.51 0.742-0.804 1.141v0l-0.49 0.663-0.77-0.568 2.214-2.999 0.63 0.466 1.303 4.887c0.035-0.059 0.07-0.117 0.105-0.176 0.036-0.049 0.069-0.093 0.097-0.131v0c0.149-0.202 0.305-0.391 0.468-0.566 0.168-0.171 0.317-0.344 0.446-0.519v0c0.125-0.169 0.213-0.328 0.264-0.476 0.055-0.154 0.091-0.334 0.108-0.541z" fill="#ceb700" data-fill-palette-color="accent"/><path d="M17.984 11.907c-0.096-0.123-0.195-0.24-0.298-0.349-0.102-0.11-0.189-0.193-0.259-0.25v0l0.699-0.892c0.169 0.084 0.331 0.199 0.487 0.343 0.16 0.151 0.296 0.298 0.409 0.443v0c0.167 0.214 0.296 0.441 0.387 0.68 0.091 0.239 0.177 0.482 0.257 0.729 0.086 0.243 0.172 0.481 0.259 0.714 0.087 0.233 0.21 0.452 0.368 0.656v0c0.113 0.145 0.243 0.241 0.392 0.288 0.154 0.043 0.325-0.008 0.513-0.153v0c0.161-0.125 0.265-0.322 0.313-0.592 0.048-0.27 0.054-0.567 0.017-0.891-0.036-0.333-0.11-0.672-0.221-1.014-0.107-0.347-0.232-0.663-0.375-0.947v0l-0.842-1.68 1.02-0.794 1.306 2.674c0.1 0.206 0.194 0.382 0.282 0.529 0.088 0.146 0.18 0.281 0.276 0.404v0c0.233 0.3 0.455 0.502 0.665 0.606 0.205 0.098 0.378 0.171 0.517 0.217v0l-0.572 0.973c-0.17-0.031-0.343-0.099-0.519-0.202-0.18-0.11-0.345-0.261-0.494-0.454v0c-0.067-0.086-0.143-0.194-0.228-0.326-0.08-0.136-0.172-0.288-0.277-0.456v0l0.129 0.481c0.147 0.565 0.15 1.066 0.008 1.503-0.132 0.438-0.38 0.799-0.745 1.083v0c-0.402 0.313-0.774 0.443-1.116 0.39-0.341-0.062-0.644-0.264-0.911-0.608v0c-0.183-0.236-0.33-0.491-0.441-0.766-0.111-0.275-0.215-0.547-0.312-0.815-0.096-0.278-0.195-0.549-0.297-0.814-0.098-0.259-0.231-0.496-0.397-0.71z" fill="#ceb700" data-fill-palette-color="accent"/><path d="M33.31 2.67l-0.232 1.244c-0.134-0.065-0.264-0.11-0.389-0.134-0.126-0.025-0.271-0.005-0.436 0.058v0c-0.101 0.039-0.181 0.124-0.24 0.256-0.067 0.128-0.115 0.288-0.143 0.48-0.03 0.186-0.049 0.393-0.057 0.621 0.002 0.232 0.013 0.46 0.034 0.685v0l0.49 2.844-1.208 0.463-0.49-2.931c-0.036-0.226-0.083-0.434-0.141-0.622-0.049-0.185-0.101-0.35-0.157-0.496v0c-0.151-0.393-0.296-0.668-0.436-0.825-0.138-0.151-0.237-0.247-0.297-0.29v0l0.83-0.765c0.121 0.07 0.234 0.165 0.338 0.284 0.113 0.124 0.212 0.297 0.297 0.519v0c0.058 0.152 0.11 0.325 0.155 0.519 0.045 0.194 0.093 0.375 0.144 0.545v0c-0.104-0.709-0.094-1.269 0.032-1.681 0.126-0.412 0.388-0.694 0.788-0.847v0c0.247-0.095 0.463-0.13 0.646-0.106 0.184 0.024 0.341 0.084 0.472 0.179z" fill="#ceb700" data-fill-palette-color="accent"/><path d="M41.162 4.445c-0.057-0.547-0.039-1.071 0.052-1.572 0.092-0.494 0.258-0.938 0.498-1.331 0.233-0.386 0.538-0.704 0.914-0.954 0.376-0.257 0.821-0.412 1.334-0.466v0c0.601-0.062 1.038 0.005 1.311 0.202 0.28 0.196 0.439 0.487 0.479 0.872v0c0.035 0.338-0.021 0.654-0.168 0.949-0.14 0.294-0.355 0.562-0.644 0.804-0.29 0.235-0.644 0.439-1.062 0.611-0.419 0.173-0.884 0.296-1.395 0.37v0c0.001 0.075 0.005 0.146 0.011 0.214 0.007 0.068 0.014 0.132 0.02 0.192v0c0.038 0.365 0.141 0.606 0.311 0.726 0.169 0.119 0.379 0.166 0.629 0.139v0c0.155-0.016 0.329-0.054 0.52-0.115 0.191-0.068 0.374-0.141 0.55-0.221v0c0.202-0.096 0.413-0.2 0.634-0.311v0l0.349 0.803c-0.218 0.132-0.452 0.251-0.7 0.36v0c-0.202 0.096-0.438 0.189-0.708 0.278-0.264 0.089-0.534 0.147-0.811 0.176v0c-0.358 0.037-0.667 0.014-0.929-0.068-0.254-0.083-0.465-0.208-0.632-0.375-0.174-0.166-0.304-0.361-0.388-0.584-0.091-0.223-0.149-0.455-0.175-0.699zM43.789 1.041c-0.176 0.018-0.336 0.086-0.481 0.203-0.144 0.124-0.265 0.28-0.361 0.467-0.103 0.188-0.187 0.402-0.251 0.64-0.071 0.239-0.124 0.484-0.159 0.734v0c0.342-0.056 0.637-0.141 0.884-0.256 0.248-0.114 0.452-0.245 0.615-0.391 0.155-0.153 0.269-0.304 0.342-0.455 0.072-0.158 0.102-0.304 0.088-0.439v0c-0.019-0.182-0.08-0.316-0.185-0.401-0.105-0.092-0.269-0.126-0.492-0.102z" fill="#ceb700" data-fill-palette-color="accent"/><path d="M70.248 4.552l-1.126 0.005c0.015-0.068 0.023-0.146 0.025-0.234 0.008-0.086-0.004-0.169-0.035-0.249-0.025-0.078-0.07-0.153-0.134-0.226-0.071-0.076-0.165-0.139-0.283-0.191v0c-0.379-0.167-0.761-0.183-1.147-0.048-0.388 0.141-0.757 0.364-1.107 0.67-0.352 0.312-0.669 0.677-0.949 1.095-0.287 0.415-0.519 0.825-0.696 1.229v0c-0.104 0.236-0.176 0.46-0.218 0.672-0.041 0.212-0.04 0.412 0.003 0.602 0.04 0.196 0.126 0.371 0.258 0.525 0.132 0.155 0.326 0.288 0.581 0.4v0c0.155 0.068 0.295 0.122 0.418 0.162 0.124 0.04 0.239 0.072 0.347 0.097 0.108 0.025 0.212 0.041 0.312 0.048 0.104 0.016 0.222 0.027 0.353 0.033v0l-0.157 0.888c-0.289-0.001-0.588-0.029-0.898-0.084-0.31-0.055-0.688-0.18-1.135-0.377v0c-0.82-0.361-1.324-0.827-1.51-1.398-0.192-0.574-0.126-1.231 0.199-1.97v0c0.282-0.64 0.633-1.227 1.053-1.762 0.42-0.534 0.89-0.969 1.408-1.305 0.522-0.327 1.079-0.53 1.671-0.612 0.589-0.075 1.197 0.026 1.825 0.303v0c0.236 0.104 0.428 0.225 0.574 0.363 0.147 0.139 0.253 0.285 0.318 0.441 0.062 0.146 0.098 0.299 0.11 0.459 0.005 0.158-0.015 0.312-0.06 0.464z" fill="#ceb700" data-fill-palette-color="accent"/><path d="M74.787 14.635c0.151 0.126 0.369 0.167 0.654 0.122 0.29-0.041 0.596-0.131 0.916-0.271 0.325-0.135 0.65-0.302 0.974-0.499 0.324-0.198 0.604-0.389 0.838-0.574v0l0.634-0.505c-0.042-0.097-0.106-0.19-0.191-0.28-0.076-0.09-0.155-0.169-0.239-0.239v0c-0.266-0.222-0.555-0.336-0.869-0.341-0.314-0.006-0.626 0.061-0.936 0.2-0.31 0.139-0.609 0.327-0.897 0.565-0.287 0.238-0.537 0.484-0.75 0.74v0c-0.218 0.261-0.331 0.476-0.34 0.645-0.014 0.165 0.054 0.311 0.206 0.437zM73.851 15.087c-0.214-0.178-0.359-0.37-0.435-0.575-0.076-0.205-0.107-0.417-0.093-0.635 0.024-0.219 0.089-0.434 0.195-0.647 0.097-0.211 0.221-0.408 0.374-0.59v0c0.352-0.422 0.738-0.772 1.156-1.051 0.414-0.273 0.843-0.459 1.288-0.556 0.444-0.098 0.885-0.096 1.323 0.004 0.438 0.1 0.86 0.32 1.266 0.659v0c0.099 0.083 0.231 0.211 0.396 0.384 0.165 0.173 0.326 0.409 0.483 0.709v0l0.523 0.502-2.129 1.738c-0.318 0.265-0.576 0.514-0.771 0.749v0c-0.244 0.292-0.394 0.546-0.452 0.764-0.058 0.217-0.092 0.401-0.102 0.551v0l-1.073-0.352c-0.006-0.173 0.026-0.354 0.096-0.543 0.069-0.199 0.182-0.392 0.338-0.58v0c0.065-0.078 0.153-0.173 0.264-0.284 0.115-0.116 0.246-0.241 0.393-0.375v0l-0.45 0.221c-0.295 0.152-0.567 0.256-0.818 0.312-0.245 0.061-0.475 0.081-0.689 0.062-0.209-0.015-0.403-0.063-0.584-0.143-0.176-0.085-0.343-0.193-0.499-0.324z" fill="#ceb700" data-fill-palette-color="accent"/><path d="M88.437 23.729l-1.265 0.044c0.034-0.145 0.05-0.281 0.046-0.409-0.003-0.128-0.054-0.266-0.151-0.413v0c-0.06-0.091-0.161-0.15-0.302-0.179-0.139-0.038-0.306-0.05-0.499-0.035-0.188 0.011-0.395 0.037-0.619 0.08-0.226 0.052-0.447 0.113-0.662 0.181v0l-2.669 1.097-0.714-1.078 2.754-1.116c0.213-0.084 0.405-0.175 0.577-0.273 0.17-0.088 0.32-0.175 0.45-0.261v0c0.351-0.232 0.588-0.434 0.71-0.605 0.117-0.167 0.19-0.285 0.219-0.352v0l0.927 0.643c-0.042 0.134-0.11 0.264-0.204 0.392-0.096 0.137-0.244 0.271-0.442 0.403v0c-0.136 0.09-0.293 0.178-0.472 0.264-0.179 0.086-0.346 0.172-0.501 0.258v0c0.669-0.256 1.218-0.367 1.647-0.334 0.429 0.033 0.762 0.228 0.998 0.585v0c0.146 0.221 0.228 0.423 0.244 0.608 0.016 0.185-0.008 0.351-0.072 0.5z" fill="#ceb700" data-fill-palette-color="accent"/><path d="M91.437 31.497l0.888-0.3 0.371 1.1 1.533 0.021 0.583 0.964-1.709 0.222 0.413 1.225-0.94 0.145-0.423-1.254-3.437 0.482c-0.041 0.007-0.075 0.011-0.103 0.013-0.028 0.002-0.051 0.007-0.071 0.013v0c-0.103 0.035-0.166 0.092-0.189 0.172-0.019 0.071-0.001 0.187 0.052 0.347v0c0.035 0.103 0.079 0.203 0.133 0.299 0.054 0.096 0.107 0.19 0.159 0.28v0c0.069 0.099 0.137 0.194 0.204 0.286v0l-0.82 0.276c-0.093-0.105-0.18-0.226-0.262-0.363v0c-0.08-0.109-0.162-0.246-0.246-0.411-0.084-0.165-0.158-0.341-0.221-0.527v0c-0.148-0.437-0.176-0.775-0.084-1.014 0.098-0.241 0.295-0.411 0.59-0.511v0c0.097-0.033 0.203-0.058 0.319-0.075v0l3.573-0.464z" fill="#ceb700" data-fill-palette-color="accent"/><path d="M1.806 59.815l8.623 1.533 0.352 1.01-6.927 4.011-0.473-1.356 1.886-1.024-0.865-2.481-2.455-0.33zM6.137 63.546c0.59-0.328 1.132-0.61 1.624-0.847 0.499-0.239 0.896-0.431 1.191-0.577v0c-0.385-0.053-0.877-0.122-1.475-0.208-0.604-0.084-1.272-0.175-2.004-0.272v0z" fill="#ceb700" data-fill-palette-color="accent"/><path d="M11.539 77.001l-0.61 0.819c-0.211-0.08-0.402-0.184-0.573-0.311-0.174-0.133-0.346-0.314-0.516-0.543v0c-0.287-0.387-0.538-0.772-0.752-1.154-0.215-0.382-0.466-0.766-0.753-1.153v0l-0.4-0.54 0.663-0.491 5.159 0.26c-0.288-0.344-0.582-0.718-0.881-1.122v0l-0.497-0.671 0.786-0.581 2.254 3.044-0.638 0.473-5.133-0.191c0.051 0.046 0.097 0.097 0.137 0.152 0.046 0.051 0.083 0.095 0.111 0.133v0c0.149 0.202 0.281 0.408 0.396 0.619 0.118 0.217 0.242 0.412 0.371 0.587v0c0.129 0.175 0.259 0.31 0.391 0.408 0.131 0.097 0.293 0.184 0.485 0.262z" fill="#ceb700" data-fill-palette-color="accent"/><path d="M20.206 80.757c0.096-0.123 0.187-0.246 0.273-0.368 0.085-0.132 0.144-0.236 0.178-0.313v0l1.052 0.456c-0.034 0.188-0.107 0.376-0.219 0.564-0.106 0.192-0.216 0.361-0.328 0.506v0c-0.171 0.22-0.362 0.406-0.576 0.559-0.209 0.147-0.425 0.293-0.649 0.437-0.214 0.143-0.426 0.288-0.634 0.436-0.209 0.147-0.392 0.323-0.551 0.527v0c-0.112 0.145-0.173 0.295-0.182 0.451-0.009 0.156 0.082 0.309 0.275 0.459v0c0.166 0.129 0.386 0.184 0.66 0.163 0.273-0.02 0.567-0.088 0.881-0.205 0.314-0.117 0.628-0.273 0.943-0.467 0.31-0.189 0.589-0.394 0.837-0.614v0l1.432-1.247 1.038 0.805-2.308 1.96c-0.175 0.148-0.322 0.283-0.443 0.404-0.119 0.131-0.226 0.258-0.322 0.382v0c-0.233 0.3-0.374 0.565-0.422 0.794-0.058 0.23-0.09 0.42-0.095 0.57v0l-1.107-0.317c-0.008-0.178 0.019-0.368 0.081-0.569 0.062-0.201 0.17-0.401 0.323-0.6v0c0.067-0.086 0.153-0.186 0.26-0.301 0.112-0.111 0.238-0.24 0.379-0.389v0l-0.448 0.245c-0.515 0.288-1.004 0.419-1.467 0.395-0.463-0.024-0.879-0.179-1.249-0.466v0c-0.408-0.316-0.626-0.649-0.656-0.999-0.035-0.354 0.081-0.702 0.347-1.045v0c0.187-0.241 0.403-0.452 0.646-0.633 0.249-0.176 0.493-0.348 0.734-0.514 0.246-0.162 0.484-0.325 0.715-0.489 0.231-0.165 0.432-0.357 0.602-0.577z" fill="#ceb700" data-fill-palette-color="accent"/><path d="M35.138 88.295l-1.026 0.774c-0.056-0.138-0.123-0.258-0.2-0.36-0.075-0.109-0.195-0.194-0.36-0.257v0c-0.108-0.041-0.227-0.032-0.359 0.026-0.138 0.056-0.281 0.147-0.431 0.272-0.156 0.122-0.309 0.267-0.46 0.435-0.16 0.171-0.307 0.348-0.442 0.528v0l-1.551 2.493-1.237-0.473 1.619-2.553c0.124-0.192 0.231-0.377 0.32-0.554 0.089-0.177 0.162-0.338 0.218-0.484v0c0.153-0.4 0.226-0.706 0.22-0.918 0-0.211-0.007-0.352-0.024-0.424v0l1.151-0.018c0.041 0.139 0.059 0.292 0.055 0.457 0.001 0.168-0.04 0.362-0.125 0.584v0c-0.061 0.159-0.139 0.325-0.234 0.5-0.096 0.174-0.182 0.345-0.261 0.511v0c0.407-0.608 0.795-1.026 1.166-1.256 0.368-0.223 0.759-0.255 1.171-0.097v0c0.247 0.094 0.431 0.212 0.552 0.352 0.121 0.141 0.2 0.294 0.238 0.462z" fill="#ceb700" data-fill-palette-color="accent"/><path d="M40.943 93.205c0.057-0.554 0.181-1.066 0.373-1.538 0.193-0.478 0.446-0.886 0.76-1.222 0.315-0.343 0.686-0.598 1.113-0.765 0.427-0.174 0.901-0.235 1.421-0.182v0c0.608 0.063 1.028 0.222 1.261 0.478 0.234 0.249 0.33 0.57 0.29 0.961v0c-0.035 0.338-0.154 0.639-0.359 0.905-0.197 0.26-0.466 0.481-0.805 0.665-0.339 0.177-0.731 0.307-1.177 0.39-0.452 0.083-0.939 0.108-1.461 0.075v0c-0.014 0.074-0.025 0.144-0.032 0.212-0.007 0.068-0.014 0.135-0.021 0.203v0c-0.038 0.365 0.014 0.626 0.155 0.783 0.141 0.151 0.34 0.24 0.597 0.266v0c0.155 0.016 0.333 0.01 0.534-0.016 0.207-0.026 0.405-0.061 0.594-0.103v0c0.216-0.046 0.447-0.104 0.694-0.174v0l0.187 0.869c-0.247 0.084-0.504 0.156-0.77 0.217v0c-0.224 0.052-0.477 0.094-0.76 0.127-0.283 0.032-0.567 0.034-0.851 0.004v0c-0.365-0.038-0.666-0.123-0.905-0.256-0.238-0.141-0.422-0.31-0.551-0.508-0.137-0.198-0.227-0.416-0.271-0.652-0.036-0.243-0.042-0.489-0.016-0.739zM44.254 90.373c-0.182-0.019-0.356 0.015-0.522 0.099-0.166 0.092-0.32 0.223-0.46 0.393-0.14 0.163-0.265 0.358-0.378 0.586-0.118 0.22-0.22 0.452-0.307 0.695v0c0.346 0.015 0.656-0.011 0.93-0.078 0.272-0.061 0.503-0.146 0.691-0.257 0.189-0.117 0.336-0.245 0.439-0.384 0.103-0.14 0.162-0.28 0.177-0.423v0c0.018-0.176-0.015-0.319-0.099-0.429-0.091-0.112-0.248-0.179-0.471-0.202z" fill="#ceb700" data-fill-palette-color="accent"/><path d="M67.187 83.898l-0.768 0.86c-0.042-0.063-0.096-0.125-0.16-0.186-0.058-0.064-0.127-0.111-0.207-0.142-0.083-0.038-0.173-0.057-0.27-0.059-0.097-0.002-0.208 0.025-0.333 0.079v0c-0.385 0.169-0.657 0.445-0.816 0.826-0.165 0.384-0.252 0.811-0.26 1.282-0.012 0.48 0.043 0.967 0.165 1.462 0.118 0.504 0.265 0.959 0.443 1.363v0c0.104 0.236 0.221 0.444 0.352 0.624 0.131 0.18 0.281 0.318 0.449 0.414 0.171 0.103 0.362 0.156 0.571 0.161 0.212 0.011 0.446-0.04 0.701-0.152v0c0.155-0.068 0.289-0.135 0.402-0.199 0.113-0.064 0.218-0.129 0.315-0.194 0.089-0.069 0.174-0.136 0.256-0.202 0.08-0.072 0.166-0.154 0.259-0.247v0l0.556 0.734c-0.196 0.212-0.422 0.415-0.678 0.61-0.25 0.191-0.604 0.388-1.064 0.59v0c-0.833 0.366-1.527 0.423-2.083 0.17-0.556-0.253-0.999-0.755-1.33-1.507v0c-0.284-0.646-0.479-1.31-0.585-1.99-0.115-0.684-0.119-1.334-0.012-1.952 0.103-0.609 0.328-1.16 0.674-1.653 0.35-0.502 0.842-0.893 1.477-1.172v0c0.242-0.107 0.469-0.165 0.679-0.176 0.201-0.014 0.381 0.007 0.539 0.063 0.158 0.057 0.297 0.136 0.417 0.24 0.12 0.103 0.223 0.221 0.311 0.353z" fill="#ceb700" data-fill-palette-color="accent"/><path d="M77.381 84.006c0.146-0.122 0.223-0.332 0.23-0.63 0.012-0.293-0.022-0.614-0.101-0.963-0.07-0.349-0.178-0.7-0.324-1.056-0.141-0.36-0.279-0.673-0.414-0.941v0l-0.397-0.73c-0.103 0.024-0.206 0.071-0.308 0.138-0.107 0.063-0.202 0.129-0.286 0.199v0c-0.271 0.226-0.435 0.496-0.492 0.808-0.067 0.312-0.057 0.636 0.028 0.972 0.076 0.335 0.21 0.665 0.402 0.99 0.187 0.33 0.389 0.626 0.607 0.886v0c0.217 0.261 0.406 0.413 0.566 0.456 0.17 0.044 0.332 0.001 0.489-0.129zM77.658 85.021c-0.219 0.183-0.436 0.293-0.652 0.332-0.221 0.043-0.439 0.035-0.656-0.023-0.211-0.062-0.414-0.163-0.609-0.301-0.19-0.142-0.363-0.307-0.519-0.495v0c-0.357-0.427-0.635-0.872-0.834-1.333-0.204-0.467-0.314-0.932-0.329-1.396-0.017-0.455 0.064-0.893 0.241-1.316 0.182-0.417 0.479-0.798 0.891-1.141v0c0.099-0.083 0.251-0.192 0.457-0.328 0.205-0.136 0.469-0.254 0.791-0.355v0l0.603-0.437 1.348 2.442c0.203 0.37 0.404 0.675 0.605 0.915v0c0.244 0.292 0.472 0.486 0.685 0.582 0.208 0.101 0.385 0.17 0.53 0.207v0l-0.539 1.007c-0.176-0.03-0.355-0.097-0.538-0.2-0.183-0.103-0.356-0.251-0.517-0.444v0c-0.065-0.078-0.143-0.182-0.232-0.311-0.094-0.134-0.196-0.288-0.306-0.461v0l0.144 0.49c0.097 0.317 0.15 0.609 0.16 0.875 0.011 0.256-0.011 0.491-0.064 0.703-0.057 0.207-0.141 0.392-0.252 0.555-0.116 0.158-0.251 0.303-0.408 0.433z" fill="#ceb700" data-fill-palette-color="accent"/><path d="M84.373 69.06l0.531 1.17c-0.147 0.025-0.279 0.064-0.395 0.117-0.122 0.049-0.232 0.147-0.33 0.295v0c-0.064 0.096-0.081 0.215-0.053 0.356 0.025 0.147 0.082 0.307 0.171 0.479 0.085 0.179 0.193 0.36 0.323 0.545 0.132 0.194 0.272 0.376 0.42 0.546v0l2.092 2.06-0.732 1.103-2.137-2.138c-0.16-0.163-0.317-0.308-0.47-0.434-0.153-0.126-0.294-0.232-0.425-0.318v0c-0.356-0.236-0.639-0.375-0.848-0.416-0.205-0.047-0.345-0.07-0.418-0.069v0l0.234-1.128c0.145-0.01 0.298 0.006 0.458 0.047 0.164 0.035 0.345 0.119 0.543 0.25v0c0.141 0.094 0.287 0.206 0.436 0.338 0.149 0.131 0.296 0.253 0.441 0.366v0c-0.504-0.53-0.827-1.001-0.969-1.413-0.137-0.408-0.083-0.796 0.161-1.164v0c0.146-0.221 0.301-0.374 0.464-0.461 0.164-0.087 0.331-0.131 0.503-0.131z" fill="#ceb700" data-fill-palette-color="accent"/><path d="M87.867 62.863l-0.897-0.304 0.375-1.109-1.222-0.962 0.124-1.13 1.513 0.867 0.421-1.245 0.844 0.458-0.43 1.274 3.08 1.73c0.03 0.017 0.057 0.034 0.08 0.049 0.026 0.009 0.051 0.017 0.077 0.026v0c0.103 0.035 0.183 0.03 0.242-0.015 0.065-0.043 0.124-0.144 0.178-0.305v0c0.035-0.103 0.061-0.212 0.079-0.328 0.018-0.116 0.03-0.226 0.037-0.332v0c0.011-0.118 0.015-0.235 0.011-0.351v0l0.84 0.284c0.01 0.14 0.006 0.289-0.012 0.448v0c-0.005 0.142-0.024 0.304-0.057 0.486-0.033 0.182-0.082 0.37-0.147 0.562v0c-0.15 0.444-0.338 0.735-0.565 0.874-0.217 0.134-0.48 0.149-0.789 0.045v0c-0.096-0.033-0.196-0.077-0.299-0.134v0l-3.163-1.834z" fill="#ceb700" data-fill-palette-color="accent"/><path d="M0 47.751c0-1.665 1.35-3.015 3.015-3.015 1.665 0 3.015 1.35 3.014 3.015 0 1.665-1.35 3.015-3.014 3.015-1.665 0-3.015-1.35-3.015-3.015z" fill="#ceb700" data-fill-palette-color="accent"/><path d="M89.452 47.751c0-1.665 1.35-3.015 3.014-3.015 1.665 0 3.015 1.35 3.015 3.015 0 1.665-1.35 3.015-3.015 3.015-1.665 0-3.015-1.35-3.014-3.015z" fill="#ceb700" data-fill-palette-color="accent"/></g><g id="text-1"/></svg></g></svg></g></svg></g></svg></g></svg></g></svg></g><defs/></svg>